<svg xmlns="http://www.w3.org/2000/svg" viewBox="0 0 305.19 224.51"><defs><style>.cls-1{fill:#7df7fc;}.cls-2{fill:#b9fdfe;}.cls-3{fill:#ffde00;}.cls-4{fill:#00dbff;}.cls-5{fill:#2e97ff;}.cls-6{fill:#8648ff;}.cls-7{fill:#c015ff;}.cls-8{fill:#763eff;}.cls-9{fill:#ff6dca;}.cls-10{fill:#ff8479;}.cls-11{fill:#f840f1;}.cls-12{fill:#6161ff;}.cls-13{fill:#6174ff;}.cls-14{fill:#10c0ff;}.cls-15{fill:#0bbdff;}.cls-16{fill:#03bdf9;}.cls-17{fill:#16c4ff;}.cls-18{fill:#9dfbfe;}.cls-19{fill:#82fdff;}.cls-20{fill:#1df4ff;}.cls-21{fill:#19edff;}</style></defs><title>DiamondArielC</title><g id="Capa_2" data-name="Capa 2"><g id="Capa_1-2" data-name="Capa 1"><path class="cls-1" d="M87.49,31,14.64,111.32Q11,103.88,7.36,96.43T0,81.36L77.28,15Z"/><polygon class="cls-2" points="14.64 111.32 87.49 139.06 87.49 84.77 14.64 111.32"/><path class="cls-3" d="M87.49,139.06l64,85.45q-38.7-31-77.94-63.62-29.92-24.84-58.91-49.57Z"/><polygon class="cls-4" points="147.75 38.64 210.89 33.53 189.79 141.45 147.75 38.64"/><polygon class="cls-5" points="273.53 123.4 189.79 141.45 210.89 33.53 273.53 123.4"/><polygon class="cls-6" points="222.47 149.79 189.79 141.45 273.53 123.4 222.47 149.79"/><polygon class="cls-7" points="151.49 224.51 189.79 141.45 222.47 149.79 151.49 224.51"/><polygon class="cls-8" points="273.53 123.4 151.49 224.51 222.47 149.79 273.53 123.4"/><polygon class="cls-9" points="87.49 139.06 189.79 141.45 144.85 159.66 87.49 139.06"/><polygon class="cls-10" points="151.49 224.51 144.85 159.66 87.49 139.06 151.49 224.51"/><polygon class="cls-11" points="189.79 141.45 144.85 159.66 151.49 224.51 189.79 141.45"/><polygon class="cls-12" points="210.89 33.53 231.66 18.55 305.19 90.04 210.89 33.53"/><polygon class="cls-13" points="273.53 123.4 305.19 90.04 210.89 33.53 273.53 123.4"/><polygon class="cls-12" points="231.66 18.55 291.57 60.94 305.19 90.04 231.66 18.55"/><polygon class="cls-14" points="147.75 38.64 158.98 0 210.89 33.53 147.75 38.64"/><path class="cls-15" d="M206.3,5.11,159,0l51.91,33.53Z"/><polygon class="cls-16" points="231.66 18.55 206.3 5.11 210.89 33.53 231.66 18.55"/><polygon class="cls-17" points="158.98 0 107.4 5.11 77.28 14.98 87.49 30.98 147.75 38.64 158.98 0"/><polygon class="cls-18" points="87.49 84.77 87.49 30.98 14.64 111.32 87.49 84.77"/><polygon class="cls-19" points="147.75 38.64 87.49 139.06 87.49 30.98 147.75 38.64"/><polygon class="cls-20" points="189.79 141.45 116.9 90.04 87.49 139.06 189.79 141.45"/><polygon class="cls-21" points="147.75 38.64 116.9 90.04 189.79 141.45 147.75 38.64"/></g></g></svg>