<svg xmlns="http://www.w3.org/2000/svg" viewBox="0 0 583.49 825.02"><defs><style>.cls-1{fill:#bdffe4;}.cls-2{fill:#87f4ca;}.cls-3{fill:#a1ece0;}.cls-4{fill:#6e85f4;}.cls-5{fill:#7b7bd6;}.cls-6{fill:#8585e5;}.cls-7{fill:#b5a1ff;}.cls-8{fill:#9c6ecc;}.cls-9{fill:#855eb7;}.cls-10{fill:#9886f2;}.cls-11{fill:#8686ef;}.cls-12{fill:#9494f7;}.cls-13{fill:#4b4baf;}.cls-14{fill:#5555bf;}.cls-15{fill:#cc56c6;}.cls-16{fill:#9e72dd;}.cls-17{fill:#9494ff;}.cls-18{fill:#ab85e8;}.cls-19{fill:#db76f4;}.cls-20{fill:#e88aff;}.cls-21{fill:#6f6ad8;}.cls-22{fill:#5648d8;}.cls-23{fill:#66acff;}.cls-24{fill:#617bd8;}.cls-25{fill:#66d;}.cls-26{fill:#5c48a3;}.cls-27{fill:#433587;}.cls-28{fill:#382f75;}.cls-29{fill:#7d54d6;}.cls-30{fill:#8885e5;}.cls-31{fill:#7a8dd3;}.cls-32{fill:#84a0ef;}.cls-33{fill:#659bea;}.cls-34{fill:#575a63;}.cls-35{fill:#151923;}.cls-36{fill:#2c3649;}.cls-37{fill:#dbf279;}.cls-38{fill:#85fff9;}.cls-39{fill:#85e8ff;}.cls-40{fill:#92ceff;}.cls-41{fill:#64e9f4;}.cls-42{fill:#6260e2;}.cls-43{fill:#68c4fc;}</style></defs><title>Capa 1 (2)wolf</title><g id="Capa_2" data-name="Capa 2"><g id="Capa_1-2" data-name="Capa 1"><polygon class="cls-1" points="248.68 69.28 208.09 58.55 276.77 37.11 278.04 37.11 249.96 69.28 248.68 69.28"/><polygon class="cls-2" points="294.89 65.7 278.04 37.11 249.96 69.28 294.89 65.7"/><path class="cls-3" d="M330.13,51.66l-35.24,14Q286.47,51.41,278,37.11Z"/><path class="cls-4" d="M325.79,112.94,294.89,65.7l35.24-14L433.28,99.91Z"/><path class="cls-5" d="M394.72,154.81l-68.93-41.87,107.49-13Z"/><polygon class="cls-6" points="531.75 199.15 394.72 154.81 433.28 99.92 531.75 199.15"/><polygon class="cls-7" points="583.49 186.21 471.21 138.15 531.75 199.15 583.49 186.21"/><polygon class="cls-8" points="583.49 209.7 568.59 189.94 531.75 199.15 583.49 209.7"/><polygon class="cls-9" points="491.92 242.38 531.75 199.15 583.49 209.7 491.92 242.38"/><polygon class="cls-7" points="394.72 154.81 491.92 242.38 531.75 199.15 394.72 154.81"/><polygon class="cls-10" points="440.85 256.34 394.72 154.81 491.92 242.38 443.32 256.34 440.85 256.34"/><polygon class="cls-11" points="376.85 220.77 394.72 154.81 440.85 256.34 376.85 220.77"/><polygon class="cls-12" points="398.98 365.96 440.85 256.34 376.85 220.77 398.98 365.96"/><path class="cls-13" d="M317.42,156.93Q358.19,261.44,399,366L376.85,220.77Z"/><path class="cls-14" d="M343.66,480.34l97.19,138.89L399,366q-40.78-104.52-81.56-209Q330.53,318.63,343.66,480.34Z"/><polygon class="cls-13" points="417.19 715.75 440.85 619.23 343.66 480.34 417.19 715.75"/><polygon class="cls-15" points="347.23 763.23 451.4 825.02 343.66 480.34 347.23 763.23"/><path class="cls-16" d="M276.77,641.36l70.46,121.87-3.57-282.89Q310.21,560.85,276.77,641.36Z"/><path class="cls-17" d="M295.74,413.28q-9.48,114-19,228.08,33.44-80.5,66.89-161Q319.71,446.82,295.74,413.28Z"/><path class="cls-18" d="M247.83,725.11l28.94-83.75Q223.22,526.25,169.69,411.14,208.75,568.12,247.83,725.11Z"/><path class="cls-19" d="M174,632.85,213.19,583l-43.5-171.84Q171.82,522,174,632.85Z"/><path class="cls-20" d="M142,519.15l29.61-16.34q-.94-45.84-1.88-91.67Q155.82,465.14,142,519.15Z"/><polygon class="cls-21" points="176 237.96 167.83 407.15 276.77 641.36 176 237.96"/><path class="cls-22" d="M291,480.34,176,238l100.77,403.4Z"/><path class="cls-23" d="M325.79,112.94q-3.59,21.82-7.15,43.66L176,238Z"/><path class="cls-24" d="M317.42,156.93,176,238,291,480.34Q304.21,318.64,317.42,156.93Z"/><path class="cls-25" d="M343.66,480.34q-24-33.52-47.92-67.06l21.68-256.35Q330.53,318.63,343.66,480.34Z"/><path class="cls-26" d="M508.09,563.06,456.85,501.2q17.53-129.4,35.06-258.82Z"/><polygon class="cls-27" points="546.89 448.17 501.44 431.37 491.92 242.38 546.89 448.17"/><polygon class="cls-28" points="543.83 338.38 521.07 351.5 491.92 242.38 543.83 338.38"/><polygon class="cls-29" points="440.85 256.34 440.85 619.23 491.92 242.38 440.85 256.34"/><polygon class="cls-6" points="398.98 365.96 440.85 619.23 440.85 256.34 398.98 365.96"/><path class="cls-30" d="M317.42,156.93l8.37-44q12.45,24.76,24.83,50.77,13.75,29,26.23,57.06Z"/><path class="cls-12" d="M394.72,154.81q-8.93,33-17.87,66L325.79,112.94Z"/><path class="cls-17" d="M80.68,233.19l89,178Q172.84,324.55,176,238Z"/><polygon class="cls-31" points="15.83 143.83 176 237.96 80.68 233.19 15.83 143.83"/><polygon class="cls-5" points="13.79 103.49 108.77 157.95 15.83 143.83 13.79 103.49"/><polygon class="cls-32" points="0 112.94 13.79 103.49 15.83 143.83 0 112.94"/><polygon class="cls-21" points="108.77 157.95 176 237.96 15.83 143.83 108.77 157.95"/><path class="cls-33" d="M325.79,112.94l-217,45L176,238Z"/><path class="cls-4" d="M250,69.28l-2.7,26,78.53,17.62Z"/><polygon points="294.89 65.7 325.79 112.94 249.96 69.28 294.89 65.7"/><polygon class="cls-34" points="19.06 79.66 0 112.94 13.79 103.49 19.06 79.66"/><polygon points="108.77 157.95 19.06 79.66 13.79 103.49 108.77 157.95"/><polygon class="cls-35" points="23.49 8.85 28.25 39.15 56.51 45.28 56.51 20.43 23.49 8.85"/><polygon class="cls-36" points="61.28 0 74.21 7.15 56.51 20.43 23.49 8.85 61.28 0"/><polygon class="cls-37" points="208.09 58.55 74.21 7.15 56.51 20.43 208.09 58.55"/><polygon class="cls-38" points="247.26 95.32 56.51 20.43 249.96 69.28 247.26 95.32"/><polygon class="cls-39" points="56.51 45.28 247.26 95.32 56.51 20.43 56.51 45.28"/><polygon class="cls-40" points="108.77 157.95 56.51 45.28 247.26 95.32 108.77 157.95"/><polygon class="cls-41" points="28.25 39.15 19.06 79.66 108.77 157.95 56.51 45.28 28.25 39.15"/><polygon class="cls-42" points="294.89 65.7 433.28 99.92 325.79 112.94 294.89 65.7"/><polygon class="cls-43" points="108.77 157.95 325.79 112.94 247.26 95.32 108.77 157.95"/></g></g></svg>